<svg xmlns="http://www.w3.org/2000/svg" viewBox="0 0 1600 900" role="img"><rect width="1600" height="900" fill="#101719"/><text x="100" y="120" fill="#edf0e8" font-family="Arial,sans-serif" font-size="34" font-weight="700">Operations drift review</text><text x="100" y="162" fill="#a8b4b4" font-family="monospace" font-size="16">ILLUSTRATIVE INTERFACE · PUBLIC-DATA EXAMPLE</text><g font-family="Arial,sans-serif"><g transform="translate(100 235)"><rect width="440" height="500" fill="#182225" stroke="#364448"/><text x="34" y="58" fill="#72c9c0" font-size="18">01 / SCHEMA</text><text x="34" y="112" fill="#edf0e8" font-size="27">Contract changes</text><path d="M35 180H400M35 250H400M35 320H400" stroke="#364448"/><circle cx="62" cy="180" r="8" fill="#72c9c0"/><circle cx="180" cy="250" r="8" fill="#a8b4b4"/><circle cx="310" cy="320" r="8" fill="#a8b4b4"/></g><g transform="translate(580 235)"><rect width="440" height="500" fill="#182225" stroke="#364448"/><text x="34" y="58" fill="#72c9c0" font-size="18">02 / POPULATION</text><text x="34" y="112" fill="#edf0e8" font-size="27">Slice movement</text><path d="M35 370C95 330 130 210 190 250S280 410 405 170" fill="none" stroke="#72c9c0" stroke-width="5"/><path d="M35 410H405M35 320H405M35 230H405" stroke="#364448"/></g><g transform="translate(1060 235)"><rect width="440" height="500" fill="#182225" stroke="#364448"/><text x="34" y="58" fill="#72c9c0" font-size="18">03 / OUTCOME</text><text x="34" y="112" fill="#edf0e8" font-size="27">Review queue</text><rect x="34" y="170" width="372" height="78" fill="#101719"/><rect x="34" y="270" width="372" height="78" fill="#101719"/><rect x="34" y="370" width="372" height="78" fill="#101719"/><text x="55" y="218" fill="#edf0e8" font-size="18">Route change / review</text><text x="55" y="318" fill="#edf0e8" font-size="18">Source revision / suppress</text><text x="55" y="418" fill="#edf0e8" font-size="18">Small slice / observe</text></g></g></svg>
